<svg width="19" height="20" viewBox="0 0 19 20" fill="none" xmlns="http://www.w3.org/2000/svg">
<path fill-rule="evenodd" clip-rule="evenodd" d="M10.2104 1.64499C10.9366 0.756245 12.1829 0.0737495 13.2491 0C13.4279 1.21499 12.9341 2.40498 12.2816 3.24623C11.5841 4.14997 10.3804 4.84872 9.21539 4.81247C9.0029 3.64873 9.54789 2.45123 10.2104 1.64499ZM13.6416 4.68122C15.0004 4.68122 16.4391 5.42621 17.4628 6.70995C14.1066 8.56119 14.6504 13.3837 18.0416 14.6749C17.5753 15.7149 17.3516 16.1786 16.7503 17.0999C15.9116 18.3849 14.7304 19.9861 13.2641 19.9974C12.6614 20.0037 12.266 19.8213 11.8396 19.6246C11.3455 19.3966 10.8098 19.1495 9.86164 19.1549C8.9187 19.1595 8.37443 19.4036 7.87352 19.6283C7.43617 19.8244 7.03188 20.0057 6.42416 19.9999C4.95917 19.9874 3.83918 18.5424 3.00044 17.2574C0.656703 13.6662 0.409205 9.44994 1.85545 7.20745C2.88419 5.61496 4.50668 4.68372 6.03042 4.68372C6.84252 4.68372 7.49704 4.91839 8.12076 5.14203C8.68844 5.34557 9.23062 5.53996 9.84289 5.53996C10.4094 5.53996 10.8752 5.36249 11.3833 5.1689C11.9929 4.93666 12.6633 4.68122 13.6416 4.68122Z" fill="#191826"/>
</svg>
