<svg width="217" height="360" viewBox="0 0 217 360" fill="none" xmlns="http://www.w3.org/2000/svg">
<path d="M0 26.6667C0 -10.1523 29.8477 -40 66.6667 -40C103.486 -40 133.333 -10.1523 133.333 26.6667V226.667H100C44.7715 226.667 0 181.895 0 126.667V26.6667Z" fill="#66E2DC"/>
<path d="M133.333 226.667H200C236.819 226.667 266.667 256.514 266.667 293.333C266.667 330.152 236.819 360 200 360C163.181 360 133.333 330.152 133.333 293.333V226.667Z" fill="#191826"/>
<rect x="200" y="26.6666" width="66.6667" height="66.6667" rx="33.3333" fill="#FFB964"/>
<rect x="200" y="-40" width="66.6667" height="66.6667" rx="33.3333" fill="#FA7453"/>
<rect y="226.667" width="133.333" height="133.333" rx="66.6667" fill="#FA7453"/>
<rect x="133.333" y="-40" width="66.6667" height="133.333" rx="33.3333" fill="#191826"/>
<rect x="134.333" y="94.3334" width="131.333" height="131.333" rx="65.6667" stroke="#191826" stroke-width="2"/>
<rect x="134.333" y="127.667" width="64.6667" height="64.6667" rx="32.3333" stroke="#191826" stroke-width="2"/>
</svg>
