<svg width="20" height="21" viewBox="0 0 20 21" fill="none" xmlns="http://www.w3.org/2000/svg">
<path d="M18.8958 0.5H1.10417C0.494167 0.5 0 0.994167 0 1.60417V19.3967C0 20.0058 0.494167 20.5 1.10417 20.5H10.6833V12.755H8.07667V9.73667H10.6833V7.51083C10.6833 4.9275 12.2608 3.52083 14.5658 3.52083C15.67 3.52083 16.6183 3.60333 16.895 3.64V6.34L15.2967 6.34083C14.0433 6.34083 13.8008 6.93667 13.8008 7.81V9.7375H16.79L16.4008 12.7558H13.8008V20.5H18.8975C19.5058 20.5 20 20.0058 20 19.3958V1.60417C20 0.994167 19.5058 0.5 18.8958 0.5Z" fill="#FA7453"/>
</svg>
